#!OML:ASF F:\VICON\USERDATA\INSTALL\rory3\rory3.ASF
:FULLY-SPECIFIED
:DEGREES
19
root 0.39057863763199496 17.86047467495427 -13.30057879155769 1.2460198703045091 2.626298812421287 -2.4043815047140242
lfemur -29.41475733983153 5.722922765136669 -25.651319166590728
ltibia 30.605643542750176
lfoot -4.349475937452398 -14.364233797244726
ltoes -8.478269440247981
rfemur 4.435010349243758 4.785972641838521 32.53973220844337
rtibia 68.84175967127746
rfoot 15.018687262419636 -8.26277213962323
rtoes 4.811458742606762
lowerback 13.369467041703965 2.1000870316151894 2.5094038231216453
upperback -0.6436987356574031 3.242705724708303 0.6969723625644637
thorax -8.003517366343846 1.4587230923888863 -1.71476892855493
lowerneck -18.83680202278262 -5.873935193348968 -2.4422257488402845
upperneck 13.202440886552388 -8.281053659980405 6.6826256153657795
head 7.474907069052732 -3.54943435773696 1.4472977511934972
lclavicle 2.9801522473120355e-15 1.1900930386065925e-16
lhumerus -64.93451625327863 -4.295897708639324 96.57868516425751
lradius 115.87857289329227
lwrist 30.90321739099759
lhand -20.42028952579455 2.319344396558446
lfingers 7.125019999999999
lthumb 5.933940190141054 32.217132312612144
rclavicle 2.9801522473120355e-15 1.1900930386065925e-16
rhumerus -40.24630247865163 14.114421261986912 -97.46118631223062
rradius 111.32965486002423
rwrist -15.224819843870263
rhand -17.02124258716083 37.99337908315093
rfingers 7.125019999999999
rthumb 9.214685302019392 8.246050827867396
20
root 0.39406510478450435 17.682510186209864 -12.227594307532737 0.06515340661871472 4.492265308835736 -1.6686580685890693
lfemur -27.48574342421537 4.777309691232393 -26.385192287505426
ltibia 36.62185960298847
lfoot -8.755887936231927 -15.36531647022801
ltoes 4.543819991065069
rfemur 0.8264455449681201 1.252610370702446 30.320684037299834
rtibia 76.74541864026432
rfoot 14.517544155730604 -6.985437921862423
rtoes 10.985404633328056
lowerback 14.897634174724635 1.4341232306853735 1.5755047558760187
upperback -0.36514516058696644 2.193577388406881 0.5125650053307567
thorax -8.616267127207562 0.9824193866011779 -1.2342649252788225
lowerneck -18.5731725980531 -5.843832498097676 -2.617993024437241
upperneck 13.12458695328134 -8.266089910040552 7.158727800814173
head 7.411367713363146 -3.5244512727673136 1.6883126538086093
lclavicle 2.9801521926176177e-15 1.1900927495855048e-16
lhumerus -62.24104593655965 -5.952235348392142 97.3814501531395
lradius 116.24642013693696
lwrist 31.103365008712867
lhand -20.496257286142477 2.2873999595551204
lfingers 7.125019999999999
lthumb 5.860543449392065 32.18437709864008
rclavicle 2.9801521926176177e-15 1.1900927495855048e-16
rhumerus -42.38959853230304 13.389536614611874 -98.31025279467195
rradius 109.66564333224309
rwrist -15.63938272516741
rhand -15.845989299689027 38.4889316982918
rfingers 7.125019999999999
rthumb 10.348791218811861 8.763852799862859
21
root 0.3146246186655153 17.410078272442437 -10.72043542874334 1.355777212609432 0.7860800316890286 -2.5208864206886603
lfemur -27.47948403431849 3.747561963301629 -24.63711677415869
ltibia 41.092544560436856
lfoot -13.783048986808002 -10.297333741333418
ltoes 3.6574981277607588
rfemur 1.083285567701239 -1.0778919327383 28.096270030156084
rtibia 86.24294677624822
rfoot 13.175342702065288 -6.079206120519416
rtoes 13.493575884360153
lowerback 15.53796833418803 1.6468997515899724 0.7148033962221543
upperback -0.5243380886491267 2.6828170093761363 0.34028955968343055
thorax -9.170444679388494 1.3870242506334942 -1.1087767581647532
lowerneck -18.550583233301357 -5.5306773208800575 -2.7530769365989527
upperneck 12.309166414722851 -8.126401879469299 6.925320584795239
head 7.1907596255186865 -3.504418488122147 1.5850955233523467
lclavicle 2.980153749673625e-15 1.1901017952986134e-16
lhumerus -59.78417198203101 -7.960567018223385 96.86946063114627
lradius 116.5624833343681
lwrist 31.449902068388447
lhand -20.48826863980976 2.4497200548798737
lfingers 7.125019999999999
lthumb 5.800315947351026 32.310798840969014
rclavicle 2.9801019660211687e-15 1.1898187579684146e-16
rhumerus -42.563067598695774 13.73247875690379 -98.10457498950542
rradius 108.05109447441717
rwrist -15.681013937917527
rhand -17.085040059522886 37.774450617712084
rfingers 7.125019999999999
rthumb 9.207785978898356 7.862764587242028
22
root 0.30464407713110164 17.172899810146912 -10.45371112932698 1.3892567836947272 -0.2583684578049743 -2.6368633895652627
lfemur -25.644157532555905 3.553168803301718 -25.499494392991274
ltibia 45.18585795964064
lfoot -19.017030315873765 -4.64859325414556
ltoes 2.480307637140033
rfemur -3.553904428807634 -3.3466825730138576 25.668687676429265
rtibia 94.86444980353308
rfoot 11.969362853721858 -4.711038970041631
rtoes 18.745709621555825
lowerback 16.10538772962995 1.6780782753448142 -0.6890389305146094
upperback -0.36094495763224055 2.4773680839339565 0.17881980982806978
thorax -9.267376636915952 1.4044320546794848 -0.6166957812963482
lowerneck -18.80360068346119 -5.429198461110975 -2.7423931069724605
upperneck 11.88751101939165 -8.036122543974095 7.105970692488517
head 7.141913587500628 -3.4725190412636433 1.6389504282052352
lclavicle 2.9801537496717954e-15 1.1901017952886136e-16
lhumerus -56.29826652166251 -9.540969443624654 96.92230709179394
lradius 116.17513161445187
lwrist 31.448614018404996
lhand -20.509368627832764 2.5857130513586615
lfingers 7.125019999999999
lthumb 5.72304892774923 32.431595026496915
rclavicle 2.9801019661169538e-15 1.1898187584919542e-16
rhumerus -43.849050431810845 13.412580675008002 -98.46643306901076
rradius 106.61785174224609
rwrist -15.370657944456063
rhand -17.140651484764188 37.328174481498614
rfingers 7.125019999999999
rthumb 9.186506981315603 7.512881436488618
23
root 0.2933509919403749 16.97459279592684 -10.076661390131683 1.579901660099091 -0.591382968283912 -2.457677258603262
lfemur -23.54887690401824 2.8789254129161463 -27.081938547853653
ltibia 48.22043054379164
lfoot -22.419718649485258 -1.520188084175861
ltoes 2.3519971959252626
rfemur -7.890678684706057 -4.593356106735548 23.120556191351373
rtibia 102.36691981581006
rfoot 10.668374187953678 -3.3984795004514297
rtoes 19.378195192996614
lowerback 16.638098436108383 1.7020504830743484 -2.1832490493094197
upperback -0.2350252778726828 1.6785794472688602 -0.087243946226357
thorax -9.408482954813111 1.353871001711268 -0.06246678089285458
lowerneck -19.172023808204344 -5.27760256340586 -2.6549930711641134
upperneck 11.550337325526591 -7.991296934286707 7.347459567839569
head 7.15917114595782 -3.4371042802877834 1.6990149059322888
lclavicle 2.9801537496727657e-15 1.1901017952939167e-16
lhumerus -52.82687599465736 -11.478636967664496 96.61406796440068
lradius 115.2365702770761
lwrist 31.572950668757695
lhand -20.573886382540707 2.679420454570868
lfingers 7.125019999999999
lthumb 5.592766209841306 32.54757625183624
rclavicle 2.980101966114949e-15 1.189818758480994e-16
rhumerus -44.843479351338786 12.776626994604259 -98.68197843333837
rradius 105.6614242953102
rwrist -14.833931616581012
rhand -17.234865622372723 37.7928880295316
rfingers 7.125019999999999
rthumb 8.943994114232721 7.7760229056207795
24
root 0.2942230256422743 16.879150306526387 -9.307698306900292 1.912224064596429 -0.4662807287770372 -1.9592217629043325
lfemur -20.315029063896617 2.2405992951498175 -28.101528111930726
ltibia 48.96486706019627
lfoot -22.650415167548736 -0.7854555826390506
ltoes 2.8459683696121587
rfemur -12.360662470091867 -5.200438603737354 21.066107227884032
rtibia 108.07756004074596
rfoot 9.372038132136467 -2.467447783464202
rtoes 19.551825856120512
lowerback 16.803412503258823 1.576569381691145 -3.1675390737475135
upperback -0.2981831626164383 0.7494553664105461 -0.250958965528818
thorax -9.559426459029547 1.1992857849419467 0.432238680837484
lowerneck -19.622814203635183 -5.172051022587019 -2.5522342505170417
upperneck 11.304136193900725 -7.798716940160058 7.586733463704884
head 7.156930908194453 -3.352099122580629 1.744715292492988
lclavicle 2.980153749678188e-15 1.190101795323554e-16
lhumerus -48.75525972324607 -13.01621674388041 96.28907057367095
lradius 114.02749486513247
lwrist 31.66894102135318
lhand -20.54153280861364 2.781958194081133
lfingers 7.125019999999999
lthumb 5.5957931993822 32.69208451576449
rclavicle 2.98010196621462e-15 1.1898187590257727e-16
rhumerus -46.35346803068112 11.941597913759225 -98.98134043760393
rradius 105.32883616749133
rwrist -14.43631279416357
rhand -17.011991820138416 38.15622609578861
rfingers 7.125019999999999
rthumb 9.25111221620417 8.222990604938335
25
root 0.29456992525050385 16.88214028364895 -8.451658190440341 2.534506698354272 -0.49534803264691596 -1.763827693221126
lfemur -17.289272738472977 1.2470279047808066 -28.738792718671174
ltibia 47.661719862359234
lfoot -21.735455822242475 -0.7442646592789792
ltoes 3.7554436526857007
rfemur -19.049802332602834 -5.731141917895599 19.22056584869769
rtibia 111.64230793787164
rfoot 7.875865534593435 -2.0233604650509136
rtoes 19.48125267107074
lowerback 16.707764564896102 1.2466734774095714 -3.6273528661756105
upperback -0.3923091838922207 0.4273194361650532 -0.16082319952016677
thorax -9.552911327742297 0.9164089312123991 0.9913257926275785
lowerneck -19.857486535580282 -4.943956865681106 -2.4756643880428912
upperneck 11.036420518798803 -7.552386115996056 7.6582691963693446
head 7.0964975119257545 -3.2211481200715664 1.8337562535814944
lclavicle 2.980153749681855e-15 1.190101795343598e-16
lhumerus -45.24147479969123 -14.285352902971615 95.78972410017816
lradius 112.87599047569178
lwrist 31.842320891055202
lhand -20.718249826833954 2.909781272844403
lfingers 7.125019999999999
lthumb 5.397601256954296 32.878325224469485
rclavicle 2.980101966215088e-15 1.1898187590283323e-16
rhumerus -47.879384751825214 11.138129811972156 -99.22347694780572
rradius 105.74258786839961
rwrist -14.285225906067748
rhand -17.068844487834085 38.32035344131507
rfingers 7.125019999999999
rthumb 9.358071035032618 8.583805335979966
26
root 0.30610264984486923 16.9453011691412 -7.445629949962242 2.8619713135477753 -0.4838355818069884 -1.3890736181643248
lfemur -12.987833584916082 0.4178456433490134 -28.515990580852232
ltibia 45.634785986983914
lfoot -20.55239416902349 -1.031479108595537
ltoes 5.186169707352999
rfemur -25.489674547718693 -6.350330828533032 18.52820853790999
rtibia 113.0037033702742
rfoot 6.593454262952594 -1.9918322430607374
rtoes 16.491616292156532
lowerback 16.522898826329573 0.6422962103473707 -3.780077118197818
upperback -0.5258111725883483 -0.03267594855826572 -0.02648014806047727
thorax -9.557270297151378 0.39434732208504447 1.4552547869529209
lowerneck -20.073163189021344 -4.799420442353744 -2.513158421423016
upperneck 11.050668042849884 -7.24581019236944 7.471373992989911
head 7.088807548206646 -3.107895470272063 1.837184437335977
lclavicle 2.9801537496868008e-15 1.1901017953706295e-16
lhumerus -41.60694817528298 -14.648060228736725 95.41898769338596
lradius 111.96043369056183
lwrist 32.23193250412889
lhand -20.824128435002493 3.1143052330754015
lfingers 7.125019999999999
lthumb 5.2721841660939255 33.093563466916784
rclavicle 2.980101966101462e-15 1.1898187584072796e-16
rhumerus -49.818651607438944 10.437707693915463 -99.48242601999802
rradius 106.71539267335453
rwrist -14.354923766672169
rhand -16.29103962332411 39.07047038431607
rfingers 7.125019999999999
rthumb 9.860428145975158 9.19840268707881
